<svg xmlns="http://www.w3.org/2000/svg" version="1.1" xmlns:xlink="http://www.w3.org/1999/xlink" xmlns:svgjs="http://svgjs.dev/svgjs" width="2000" height="1500" viewBox="0 0 2000 1500"><rect width="2000" height="1500" fill="#0093fb"></rect><g transform="matrix(0.75,0,0,0.75,249.78667664670684,-0.21332335329350371)"><svg viewBox="0 0 334 334" data-background-color="#0093fb" preserveAspectRatio="xMidYMid meet" height="2000" width="2000" xmlns="http://www.w3.org/2000/svg" xmlns:xlink="http://www.w3.org/1999/xlink"><g id="tight-bounds" transform="matrix(1,0,0,1,0.04749999999998522,0.04750000000001364)"><svg viewBox="0 0 333.90454557049503 333.90454557049503" height="333.90454557049503" width="333.90454557049503"><g><svg></svg></g><g><svg viewBox="0 0 333.90454557049503 333.90454557049503" height="333.90454557049503" width="333.90454557049503"><g><path d="M0 166.952c0-92.205 74.747-166.952 166.952-166.952 92.205 0 166.952 74.747 166.953 166.952 0 92.205-74.747 166.952-166.953 166.953-92.205 0-166.952-74.747-166.952-166.953zM166.952 316.63c82.665 0 149.677-67.013 149.678-149.678 0-82.665-67.013-149.677-149.678-149.677-82.665 0-149.677 67.013-149.677 149.677 0 82.665 67.013 149.677 149.677 149.678z" data-fill-palette-color="tertiary" fill="#ffffff" stroke="transparent"></path><ellipse rx="160.27418187383762" ry="160.27418187383762" cx="166.95227278524752" cy="166.95227278524752" fill="#ffffff" stroke="transparent" stroke-width="0" fill-opacity="1" data-fill-palette-color="tertiary"></ellipse></g><g transform="matrix(1,0,0,1,113.10881903491145,71.17305217166896)"><svg viewBox="0 0 107.68690750067212 191.55844122715712" height="191.55844122715712" width="107.68690750067212"><g><svg viewBox="0 0 107.68690750067212 191.55844122715712" height="191.55844122715712" width="107.68690750067212"><g><svg viewBox="0 0 107.68690750067212 191.55844122715712" height="191.55844122715712" width="107.68690750067212"><g><svg viewBox="0 0 107.68690750067212 191.55844122715712" height="191.55844122715712" width="107.68690750067212"><g id="textblocktransform"><svg viewBox="0 0 107.68690750067212 191.55844122715712" height="191.55844122715712" width="107.68690750067212" id="textblock"><g><svg viewBox="0 0 107.68690750067212 191.55844122715712" height="191.55844122715712" width="107.68690750067212"><g transform="matrix(1,0,0,1,0,0)"><svg width="107.68690750067212" viewBox="1.8 -36.65 20.8 37" height="191.55844122715712" data-palette-color="#183d3d"><path d="M12.05 0.35L12.05 0.35Q8.85 0.35 6.55-0.63 4.25-1.6 3.03-2.88 1.8-4.15 1.8-5.05L1.8-5.05Q1.8-5.45 2.02-5.9 2.25-6.35 2.6-6.63 2.95-6.9 3.3-6.9L3.3-6.9Q3.8-6.9 4.33-6.28 4.85-5.65 5.73-4.83 6.6-4 8.05-3.38 9.5-2.75 11.85-2.75L11.85-2.75Q14.2-2.75 15.88-3.53 17.55-4.3 18.43-5.83 19.3-7.35 19.3-9.65L19.3-9.65Q19.3-12.05 18.4-13.53 17.5-15 16.03-15.93 14.55-16.85 12.8-17.53 11.05-18.2 9.28-18.88 7.5-19.55 6.03-20.58 4.55-21.6 3.63-23.28 2.7-24.95 2.7-27.55L2.7-27.55Q2.7-30.3 3.7-32.05 4.7-33.8 6.28-34.8 7.85-35.8 9.7-36.23 11.55-36.65 13.3-36.65L13.3-36.65Q14.7-36.65 16.18-36.43 17.65-36.2 18.9-35.8 20.15-35.4 20.93-34.85 21.7-34.3 21.7-33.6L21.7-33.6Q21.7-33.25 21.53-32.83 21.35-32.4 21.05-32.08 20.75-31.75 20.25-31.75L20.25-31.75Q19.8-31.75 19-32.23 18.2-32.7 16.82-33.18 15.45-33.65 13.25-33.65L13.25-33.65Q11.45-33.65 9.78-33.13 8.1-32.6 7.05-31.35 6-30.1 6-27.85L6-27.85Q6-25.85 6.93-24.63 7.85-23.4 9.33-22.65 10.8-21.9 12.55-21.28 14.3-20.65 16.07-19.88 17.85-19.1 19.33-17.93 20.8-16.75 21.7-14.85 22.6-12.95 22.6-9.95L22.6-9.95Q22.6-6.4 21.25-4.13 19.9-1.85 17.53-0.75 15.15 0.35 12.05 0.35Z" opacity="1" transform="matrix(1,0,0,1,0,0)" fill="#183d3d" class="wordmark-text-0" data-fill-palette-color="quaternary" id="text-0"></path></svg></g></svg></g></svg></g></svg></g><g></g></svg></g></svg></g></svg></g></svg></g><defs></defs></svg><rect width="333.90454557049503" height="333.90454557049503" fill="none" stroke="none" visibility="hidden"></rect></g></svg></g></svg>